<svg version="1.2" xmlns="http://www.w3.org/2000/svg" viewBox="0 0 800 800" width="20" height="20">
	<style>
		.s0 { fill: #eb5757 } 
	</style>
	<path class="s0" d="m718.89 724.86v-502.55l-204.04-204.89v-0.95h-0.98l-16.39-16.47h-342.58c-25.91 0-74.9 15.71-74.9 75.14v649.73c0 25.98 15.66 75.13 74.9 75.13h489.1c25.9-0.01 74.89-15.71 74.89-75.14zm-29.38 0c0 43-37.91 45.66-45.55 45.74h-489.06c-42.86 0-45.44-38.16-45.52-45.74v-649.73c0-43.05 37.97-45.66 45.51-45.75h330.37l0.18 0.18v128.92c0 25.87 15.64 74.86 74.88 74.86h128.09l1.1 1.1zm-62.1-201.94c-1.64-23.48-41.17-38.55-41.56-38.69-15.28-5.42-31.88-8.05-50.75-8.05-20.2 0-41.97 2.92-69.94 9.46-24.88-17.64-46.38-39.73-62.44-64.17-7.09-10.81-13.47-21.59-19.03-32.12 13.57-32.44 25.79-67.32 23.57-106.39-1.79-31.33-15.92-52.37-35.13-52.37-13.17 0-24.52 9.76-33.75 29.04-16.45 34.34-12.13 78.29 12.86 130.74-9 21.13-17.36 43.04-25.45 64.25-10.07 26.38-20.45 53.59-32.14 79.47-32.79 12.97-59.72 28.71-82.17 48.02-14.71 12.64-32.44 31.95-33.45 52.1-0.5 9.5 2.76 18.2 9.37 25.18 7.03 7.41 15.86 11.31 25.57 11.32 32.06 0 62.92-44.06 68.78-52.89 11.78-17.76 22.81-37.57 33.61-60.42 27.22-9.84 56.22-17.18 84.34-24.28l10.06-2.55c7.57-1.93 15.44-4.06 23.51-6.26 8.53-2.31 17.32-4.71 26.25-6.98 28.86 18.36 59.9 30.33 90.18 34.73 25.5 3.71 48.14 1.55 63.47-6.44 13.8-7.18 14.56-18.27 14.24-22.7zm-354.74 53.19c-5.04 9.01-10.19 17.45-15.46 25.42-12.73 19.18-33.54 39.71-44.23 39.71-1.05 0-2.32-0.17-4.18-2.13-1.2-1.26-1.39-2.16-1.33-3.39 0.36-7.05 9.7-19.6 23.23-31.24 12.28-10.57 26.17-19.96 41.97-28.37zm320.7-54.19c-9.75 2.88-24.06 3.21-39.41 0.98-16.46-2.39-33.26-7.42-49.77-14.84 29.44-4.28 52.28-2.96 71.82 3.96 4.62 1.64 12.23 6.02 17.36 9.9zm-164.27-27q-1.79 0.48-3.55 0.96c-7.92 2.15-15.63 4.26-23.06 6.13l-10.02 2.54c-20.14 5.1-40.74 10.31-61.09 16.51 7.73-18.65 14.92-37.5 21.95-55.93 5.21-13.65 10.53-27.58 16.03-41.34q4.18 6.91 8.73 13.84c13.8 21.02 31.15 40.46 51.01 57.29zm230.04-290.97h-98.81c-42.84 0-45.43-37.96-45.49-45.47v-99.42zm-281.29 80.7c1.31 23.01-3.65 45.14-10.94 66.38-8.97-26.26-13.15-55.25-1.93-78.66 2.87-6 5.23-9.21 6.76-10.88 2.36 3.64 5.46 11.79 6.11 23.16z"/>
</svg>